<?xml version="1.0" encoding="UTF-8"?>
<svg id="Camada_2" data-name="Camada 2" xmlns="http://www.w3.org/2000/svg" viewBox="0 0 211.86 267.96">
  <defs>
    <style>
      .cls-1 {
        fill: #fff;
      }

      .cls-2 {
        fill: #edcfa4;
      }
    </style>
  </defs>
  <g id="Camada_1-2" data-name="Camada 1">
    <g>
      <g>
        <path class="cls-1" d="m39.49,146.83l-13.77,59.95c-1.67,7.16,2.83,14.32,9.99,15.93,1,.22,2,.33,3,.33,6.05,0,11.55-4.16,12.99-10.32l13.27-57.73-24.7-7.88c-.28-.11-.56-.17-.78-.28Z"/>
        <path class="cls-1" d="m21.86,103.68l6.11-21.26,11.83-5.7-4.36,42.57c-.64,6.27,3.2,12.14,9.22,14.05l36.76,11.68.57,38.03c.11,7.29,6.05,13.12,13.32,13.12h.2c7.36-.11,13.23-6.16,13.12-13.52l-.71-47.62c-.09-5.73-3.82-10.76-9.29-12.49l-23.32-7.41,6.65-29.29,11.16,14.44c2.71,3.51,7.25,5.06,11.54,3.96l25.33-6.5c5.94-1.52,9.52-7.57,7.99-13.51-1.52-5.94-7.58-9.51-13.51-7.99l-18.25,4.69-13.94-18.02c-.43-.56-.92-1.08-1.45-1.54-3.71-3.26-8.23-5.53-13.06-6.54l-20.84-4.37c-6.16-1.29-12.68-.5-18.35,2.23l-24.72,11.9c-2.85,1.37-4.98,3.89-5.85,6.94L.52,97.55c-1.69,5.89,1.71,12.04,7.6,13.74,1.02.29,2.06.43,3.07.43,4.82,0,9.27-3.17,10.66-8.04Z"/>
        <path class="cls-1" d="m191.88,169.07l-28.75-10.46c-3.67-1.34-7.73.56-9.06,4.23-1.34,3.67.56,7.73,4.23,9.06l12.7,4.62L4.08,254.48c-3.54,1.65-5.07,5.86-3.42,9.4,1.2,2.57,3.75,4.08,6.41,4.08,1,0,2.02-.21,2.98-.66l166.92-77.97-4.62,12.7c-1.34,3.67.56,7.73,4.23,9.06.8.29,1.61.43,2.42.43,2.89,0,5.6-1.78,6.65-4.65l10.46-28.75c1.34-3.67-.56-7.73-4.23-9.06Z"/>
        <circle class="cls-1" cx="76.39" cy="23.37" r="23.37" transform="translate(-3.32 18.18) rotate(-13.28)"/>
      </g>
      <path class="cls-2" d="m210.98,80.16c-1.08-1.52-2.89-2.27-4.72-1.96l-12.25,2.09,2.55-32.16c.12-1.52-.41-2.9-1.5-3.89-1.11-1.02-2.66-1.47-4.14-1.22-1.42.24-2.6,1.09-3.33,2.39l-29.98,53.58c-.91,1.63-.81,3.58.27,5.11,1.08,1.52,2.89,2.27,4.73,1.96l12.24-2.09-2.55,32.16c-.12,1.52.41,2.9,1.5,3.9,1.11,1.02,2.66,1.47,4.14,1.22,1.42-.24,2.6-1.09,3.33-2.4l29.98-53.58c.91-1.63.81-3.58-.27-5.11Z"/>
    </g>
  </g>
</svg>