<?xml version="1.0" encoding="UTF-8"?>
<svg id="Camada_2" data-name="Camada 2" xmlns="http://www.w3.org/2000/svg" viewBox="0 0 2064.08 2363.53">
  <defs>
    <style>
      .cls-1 {
        fill: #e5b557;
      }

      .cls-2 {
        fill: #a88a5c;
      }

      .cls-3 {
        fill: #272425;
      }

      .cls-4 {
        fill: #fff;
      }

      .cls-5 {
        stroke-width: 3.42px;
      }

      .cls-5, .cls-6, .cls-7, .cls-8, .cls-9, .cls-10, .cls-11, .cls-12, .cls-13, .cls-14, .cls-15 {
        fill: none;
      }

      .cls-5, .cls-6, .cls-7, .cls-8, .cls-9, .cls-11, .cls-12, .cls-13, .cls-14, .cls-15 {
        stroke-linecap: round;
        stroke-linejoin: round;
      }

      .cls-5, .cls-7, .cls-8, .cls-11, .cls-12, .cls-13, .cls-14, .cls-15 {
        stroke: #272425;
      }

      .cls-16 {
        fill: #ece7de;
      }

      .cls-17 {
        fill: #133f23;
      }

      .cls-18 {
        fill: #eebda7;
      }

      .cls-6 {
        stroke-width: 3.33px;
      }

      .cls-6, .cls-9 {
        stroke: #1c1b1b;
      }

      .cls-19 {
        fill: #2d402c;
      }

      .cls-20 {
        fill: #ded8ce;
      }

      .cls-21 {
        fill: #a26159;
      }

      .cls-7 {
        stroke-width: 2.63px;
      }

      .cls-22 {
        fill: #b97a62;
      }

      .cls-8 {
        stroke-width: 2.64px;
      }

      .cls-9 {
        stroke-width: 2.55px;
      }

      .cls-23 {
        fill: #e2b299;
      }

      .cls-10 {
        stroke: #5d51fa;
        stroke-miterlimit: 10;
        stroke-width: 2.67px;
      }

      .cls-11 {
        stroke-width: 3.16px;
      }

      .cls-12 {
        stroke-width: 2.79px;
      }

      .cls-24 {
        fill: #b48c5b;
      }

      .cls-25 {
        fill: #9c7c79;
      }

      .cls-26 {
        fill: #dbccbe;
      }

      .cls-13 {
        stroke-width: 2.35px;
      }

      .cls-14 {
        stroke-width: 2.78px;
      }

      .cls-27 {
        fill: #f8f8f8;
      }

      .cls-28 {
        fill: #c9c3ba;
      }

      .cls-29 {
        fill: #cd807b;
      }

      .cls-15 {
        stroke-width: 2.41px;
      }
    </style>
  </defs>
  <g id="Camada_1-2" data-name="Camada 1">
    <g>
      <path class="cls-3" d="m298.62,69.28c-2.86-.26-5.67-.68-8.16-2-7.77-4.09-10.5-15.69-19.12-17.39-8.06-1.59-15.81,6.97-23.72,4.77-3.46-.97-6.04-3.81-9.13-5.65-6.28-3.73-14.98-2.77-20.3,2.23-7.92,7.45-7.24,12.81-18.7,13.67-8.63.65-19.27-1.04-24.67,7.6-4.06,6.49-1.91,15.75-6.74,21.69-3.52,4.33-9.99,5.79-12.7,10.67-4.51,8.1,4.6,17.39,4.49,26.66-.12,9.1-9.18,17.64-5.72,26.05,2.38,5.78,9.45,7.87,13.7,12.45,5.93,6.39,6.08,17.32,13.41,22.04,7.94,5.11,18.63-.52,27.81,1.68,5.15,1.24,9.36,4.84,14.04,7.31,4.68,2.48,10.88,3.68,14.97.31,3.05-2.51,3.99-6.82,6.7-9.69,3.34-3.54,8.59-4.24,13.31-5.43,18.69-4.74,28.23-18.57,36.64-34.58,10.65-20.26,26.56-36.94,24.4-60.61-.65-7.14-1.91-15.31-8-19.08-3.66-2.27-8.14-2.3-12.5-2.7Z"/>
      <g>
        <g>
          <line class="cls-5" x1="183.64" y1="436.99" x2="195.46" y2="518.66"/>
          <line class="cls-5" x1="396.63" y1="436.99" x2="408.44" y2="518.66"/>
        </g>
        <path class="cls-3" d="m661.7,1104.85h0c0,19.41-13.98,35.14-31.22,35.14H238.09c-17.07,0-30.97-15.43-31.21-34.64h0c-.25-19.6,13.8-35.65,31.21-35.65h392.4c17.24,0,31.22,15.73,31.22,35.14Z"/>
        <path class="cls-5" d="m304.09,1199.23h262.49c23.02,0,43.78-13.15,52.59-33.33l11.32-25.9H238.09l14.82,28.87c9.54,18.58,29.41,30.37,51.18,30.37Z"/>
        <line class="cls-5" x1="426.08" y1="1199.23" x2="426.08" y2="1554.74"/>
        <line class="cls-5" x1="268.49" y1="1554.74" x2="590.87" y2="1554.74"/>
        <circle class="cls-5" cx="271.44" cy="1593.9" r="39.15"/>
        <circle class="cls-5" cx="590.87" cy="1593.9" r="39.15"/>
        <circle class="cls-5" cx="426.08" cy="1593.9" r="39.15"/>
        <path class="cls-3" d="m210.7,1087.33l-81.88-563.06c-2.59-17.79,11.07-33.76,28.87-33.76h302.56c14.22,0,26.37,10.36,28.76,24.52l96.7,572.31H210.7Z"/>
        <path class="cls-3" d="m111.24,375.33l6.03,55.36c1.41,12.95,12.98,22.8,26.79,22.8h294.11c16.04,0,28.52-13.14,26.77-28.18l-6.46-55.36c-1.5-12.88-13.04-22.62-26.77-22.62H138.04c-15.96,0-28.42,13.02-26.79,28Z"/>
      </g>
      <g>
        <polygon class="cls-22" points="719.44 1425.77 708.14 1507.93 824.36 1521.28 847.26 1407.18 719.44 1425.77"/>
        <path class="cls-20" d="m700.77,1501.22c9.18-42.57,26.49-51.9,60.01,4.98,36.74-29.52,76.71-88.08,90.74-6.43l86.6,28.45c55.15-.89,79.72,15.08,74.73,68.03l-352.96.31c-.29-23.36,40.88-95.34,40.88-95.34Z"/>
        <path class="cls-3" d="m659.89,1596.56h0c-6.27,19.21,13.34,36.75,31.68,28.29,4.78-2.21,10.05-5.02,15.85-8.48,11.74,23.67,29.11,27.15,54.93.31,9.31,20.3,24.14,27.87,53.56,1.82,7.28,14.71,16.89,25.77,50.54-.93,5.65,22.15,25.26,21.54,57.13.93,9.23,19.24,22.84,27.37,49.92,1.27,5.43,14.44,13.43,19.49,24.05,14.94,11.15-4.77,17.64-16.51,16.36-28.56l-1.05-9.9-352.96.31Z"/>
      </g>
      <polygon class="cls-19" points="978.42 1026.18 892.02 1439.1 680.19 1439.1 767.93 987.95 978.42 1026.18"/>
      <g>
        <polygon class="cls-22" points="409.53 1425.77 398.24 1507.93 514.45 1521.28 537.35 1407.18 409.53 1425.77"/>
        <path class="cls-20" d="m390.87,1501.22c9.18-42.57,26.49-51.9,60.01,4.98,36.74-29.52,76.71-88.08,90.74-6.43l86.6,28.45c55.15-.89,79.72,15.08,74.73,68.03l-352.96.31c-.29-23.36,40.88-95.34,40.88-95.34Z"/>
        <path class="cls-3" d="m349.99,1596.56h0c-6.27,19.21,13.34,36.75,31.68,28.29,4.78-2.21,10.05-5.02,15.85-8.48,11.74,23.67,29.11,27.15,54.93.31,9.31,20.3,24.14,27.87,53.56,1.82,7.28,14.71,16.89,25.77,50.54-.93,5.65,22.15,25.26,21.54,57.13.93,9.23,19.24,22.84,27.37,49.92,1.27,5.43,14.44,13.43,19.49,24.05,14.94,11.15-4.77,17.64-16.51,16.36-28.56l-1.05-9.9-352.96.31Z"/>
      </g>
      <polygon class="cls-19" points="698.85 1063.75 582.12 1439.1 370.28 1439.1 487.32 935.78 698.85 1063.75"/>
      <path class="cls-26" d="m205.36,359.63l332.12,10.55-8.29,128.91c1.57,93.49,16.55,220.28-20.73,217.34l-265.37,14.68c-50.37-8.27-53.77-96.53-66.34-169.16l28.62-202.32Z"/>
      <path class="cls-22" d="m443.02,195.89c-.42,17.72,1.14,19.28.73,36.99-.33,13.92-2.08,43-14,54.92-1.8,1.8-4.11,2.94-6.4,4-18.3,8.48-40.37,3.37-58.97-1.87-19.73-5.55-38.53-14.6-55.86-25.69-16.25-10.41-33.95-21.61-42.81-39.72-5.3-10.85-7.91-22.89-9.32-34.94-.78-6.71-1.21-13.52-.14-20.19,1.12-7.02,3.88-13.66,7.17-19.92,9.24-17.49,23.07-32.41,39.62-42.75,15.33-9.58,32.74-15.19,50.31-18.96,29.15-6.27,62.94,3.75,79.06,30.64,5.21,8.7,8.72,18.48,10.11,28.61.09.66.17,1.3.25,1.96.6,5.02.87,10.09.96,15.19.18,10.59-.45,21.27-.7,31.72Z"/>
      <path class="cls-8" d="m407.7,176.92v21.05c8.35,4.32,16.93,8.57,0,21.52"/>
      <path class="cls-3" d="m379.01,187.22c0,3.41-2.02,6.18-4.51,6.18s-4.51-2.77-4.51-6.18,2.02-6.18,4.51-6.18,4.51,2.77,4.51,6.18Z"/>
      <path class="cls-3" d="m436.47,187.22c0,3.41-2.02,6.18-4.51,6.18s-4.51-2.77-4.51-6.18,2.02-6.18,4.51-6.18,4.51,2.77,4.51,6.18Z"/>
      <path class="cls-3" d="m374.29,169.29c2.25-.55,4.51-1.09,6.77-1.6,5.07-1.15,18.58-4.16,9.72-11.59-5.63-4.73-16.22-2.69-22.45-.65-7.48,2.45-14.31,6.89-20.08,12.32-1.57,1.47-2.67,3.55-1.46,5.71,1.34,2.39,3.64,1.85,5.81,1.32,7.24-1.79,14.45-3.72,21.7-5.5Z"/>
      <path class="cls-3" d="m443.72,164.17c-7.2,1.77-14.36,3.7-21.57,5.48-2.16.53-4.46,1.07-5.8-1.32-1.22-2.16-.11-4.24,1.46-5.71,5.77-5.41,12.61-9.86,20.08-12.31,1.43-.46,3.09-.94,4.87-1.32,4.18,2.88,9.1,5.18.96,15.19Z"/>
      <path class="cls-6" d="m259.53,205.45c0-16.68,13.16-30.21,29.39-30.21s29.39,13.52,29.39,30.21"/>
      <path class="cls-26" d="m4.65,656.53l94.96-243.07c4.27-11.67,10.58-22.5,18.92-31.55,35.04-38.04,88.45-32.14,128.09-.18l-99.94,308.07L4.65,656.53Z"/>
      <polygon class="cls-22" points="396.9 373.64 289.55 373.64 289.24 308.29 288.92 240.48 390.88 283.22 392.55 308.29 396.9 373.64"/>
      <path class="cls-26" d="m468.06,367.98c56.12-8.9,109.85-8.34,141.98,76.78l170,275.94-16.49,45.42c-22.04,32.48-68.03,34.69-92.93,4.47l-156.99-190.63-45.58-211.97Z"/>
      <path class="cls-22" d="m999.88,370.5c-.18-2.14-1.57-3.95-3.41-4.98-3.19-1.78-6.79-1.34-10.24-.86-22.44,3.12-45.69,6.62-67.62,12.45,14.73-4.91,29.46-9.82,44.06-15.1,6.95-2.51,30.29-8.34,32.01-17.07,2.65-13.5-30.46-3.14-35.71-1.59-17.96,5.31-35.89,9.28-53.58,15.47,18.6-9.14,37.19-18.32,55.77-27.51,3.32-1.65,6.79-3.41,8.53-6.97,1-2.05,1.07-4.53-.17-6.44-2.45-3.77-7.72-2.75-11.78-1.4-23.14,7.75-46.27,15.5-69.41,23.25-20.21,6.77-37.55,13.63-54.58,27.67-15.41,11.69-30.82,23.37-46.23,35.05-1.94,1.39-3.88,2.85-5.8,4.35-13.92,10.91-24.65,25.55-31.04,42.3l-85.71,224.7,115.06,46.88,55.58-244.74c39.57-18.84,85.4-54.37,85.4-54.37,0,0,44.52,1.65,67.5-8.18,3.85-1.64,8.23-4.67,7.35-9.06-.33-1.64-1.39-3.02-2.77-3.91-2.75-1.79-5.97-1.74-9.08-1.67-17.73.4-56.17.18-57.56-1.34,22.24-4.79,44.63-9.63,65.68-18.45,3.75-1.57,8.09-4.19,7.72-8.49Z"/>
      <polygon class="cls-19" points="243.09 731.11 206.87 841.09 385.1 971.06 463.88 971.06 559.25 812.32 508.46 716.44 243.09 731.11"/>
      <path class="cls-19" d="m476.71,1030.55c-195.81-8.77-178.75-128.22-152.39-252.5l549.67,26.26c96.59,6.74,128.53,83.68,104.43,221.87l-501.7,4.37Z"/>
      <polygon class="cls-26" points="427.25 381.73 260.95 381.73 265.9 310.01 415.56 310.01 427.25 381.73"/>
      <line class="cls-6" x1="297.95" y1="176.7" x2="308.29" y2="219.7"/>
      <path class="cls-3" d="m457.78,117.38c-.65,8.19-11.74,11.02-17.17,15.42-7.09,5.75-13.25,13.45-23.41,12.49-4.34-.41-8.29-2.67-12.55-3.61-6.13-1.37-12.48.03-18.72.66-9.88,1-21.22.49-30.6-3.1-5.39-2.06-13.05-9.54-17.98-2.51-1.97,2.81-1.77,6.56-1.49,9.98.65,7.91.83,16.05,2.19,23.86.83,4.78,3.61,9.7,1.91,14.68-1.85,5.43-8.3,5.07-12.45,9.25-4.2,4.23-6.18,10.77-6.38,16.6-.3,9,2.72,17.73,4.37,26.58,2.06,11.06,1.83,23.09-3.84,32.8-11.32,19.37-21.57.53-33.35-4.73-11.34-5.07-26.93-4.79-34.51-16.16-1.82-2.72-2.91-5.94-5.11-8.37-3.19-3.52-8.2-4.85-11.64-8.13-9.72-9.29-1.32-26.06-5.41-38.87-1.03-3.23-2.88-6.2-3.54-9.52-2.23-11.33,9.46-20.31,13.03-31.29,2.32-7.16,1.2-15.46,5.21-21.83,5.92-9.41,18.68-10.97,26.73-17.81,9.65-8.19,11.71-15.39,26.39-14.66,8.19.41,7.76,1.64,11.54-5.46,3.11-5.83,1.95-10.67,11.44-11.45,5.77-.47,12.02.66,17.02-2.24,4.02-2.34,6.52-6.97,10.88-8.59,8.67-3.23,17.42,7.32,26.5,5.56,4.64-.9,8.19-4.87,12.8-5.93,8.47-1.95,16.72,5.73,24.89,6.69,9.38,1.11,16.62.89,25.61,6.07,3.02,1.74,6.01,3.92,7.38,7.12,1.26,2.95.95,6.35,1.91,9.41,1.94,6.15,8.85,10.64,8.34,17.07Z"/>
      <polygon class="cls-26" points="726.66 455.95 845.7 497.5 776.98 731.11 656.69 671.69 726.66 455.95"/>
      <ellipse class="cls-22" cx="288.92" cy="205.45" rx="41.75" ry="42.91"/>
      <path class="cls-9" d="m260.54,190.15c8.22-16.11,27.6-22.32,43.27-13.87,15.68,8.45,21.72,28.36,13.5,44.48"/>
      <path class="cls-22" d="m833.86,434.58c9.29-4.23,17.92-10.77,25.44-17.81,14.34-13.43,26.92-29.4,44.05-38.77,8.72-4.77,18.37-7.67,26.74-13.06s15.63-14.29,15.34-24.43c-5.92-1.36-12.06.28-17.91,1.9-19.92,5.54-39.84,11.07-59.76,16.61-9.29,2.58-18.75,5.24-26.88,10.54-13.82,9.02-23,25.16-38.33,31.08l31.32,33.94Z"/>
      <path class="cls-15" d="m833.86,434.58c9.29-4.23,17.92-10.77,25.44-17.81,14.34-13.43,26.92-29.4,44.05-38.77,8.72-4.77,18.37-7.67,26.74-13.06s15.63-14.29,15.34-24.43c-5.92-1.36-12.06.28-17.91,1.9-19.92,5.54-39.84,11.07-59.76,16.61-9.29,2.58-18.75,5.24-26.88,10.54-13.82,9.02-23,25.16-38.33,31.08"/>
      <path class="cls-19" d="m213.44,821.16l414.79,50.21c80.88,12.4,112.43,77.65,70.62,192.39l-371.71,13.12c-145.83-8.77-147.48-162.6-113.7-255.72Z"/>
      <path class="cls-15" d="m383.29,841.72l244.93,29.65c80.88,12.4,112.43,77.65,70.62,192.39"/>
      <line class="cls-6" x1="760.72" y1="1028.11" x2="786.92" y2="999.46"/>
      <path class="cls-8" d="m365.79,185.49c4.79-5.46,10.06-7.38,16-4.39"/>
      <path class="cls-8" d="m422.81,185.49c4.79-5.46,10.06-7.38,16-4.39"/>
      <line class="cls-9" x1="308.54" y1="181.04" x2="303.92" y2="224.69"/>
      <path class="cls-27" d="m397.61,244.9c5.3,1.54,11.2.8,15.99-2.01,1.18-.69,2.31-1.53,3.06-2.69s1.05-2.7.5-3.97c-.71-1.63-2.53-2.36-4.18-2.92-6.78-2.28-12.93-2.97-20.05-1.67-2.07.38-4.24,1.24-5.28,3.07-2.78,4.85,6.64,9.21,9.96,10.18Z"/>
      <polygon class="cls-21" points="391.72 295.79 360.01 283.11 392.47 307.06 391.72 295.79"/>
      <path class="cls-10" d="m530.48,600.39c15.29-34.75,16.66-71.01-23.8-111.83v-51.58"/>
      <line class="cls-15" x1="688.29" y1="574.26" x2="656.69" y2="671.69"/>
      <circle class="cls-8" cx="374.5" cy="187.22" r="30.15"/>
      <ellipse class="cls-13" cx="437.57" cy="187.22" rx="23.89" ry="30.15"/>
      <line class="cls-13" x1="461.46" y1="187.22" x2="443.28" y2="187.22"/>
      <line class="cls-13" x1="344.36" y1="187.22" x2="327.04" y2="187.22"/>
      <line class="cls-13" x1="404.65" y1="187.22" x2="413.67" y2="187.22"/>
      <polygon class="cls-16" points="436.47 436.99 404.65 707.43 574.06 707.43 599.69 436.99 436.47 436.99"/>
      <path class="cls-22" d="m495.58,599.02c12.19-5.02,32.35-13.47,44.54-18.49,2.76-1.14,6.12-2.23,8.56-.48,2.36,1.69,2.46,5.37,1,7.88-1.46,2.51-4.03,4.13-6.51,5.66-30.29,18.66-66.47,37.45-101.34,45.79-15.4,3.69-74.01,9.73-84.7,11.49-7.76,1.27-16.08,5.8-23.43,8.46-17.44,6.29-18.91,8.02-36.34,14.32-44,15.88-87.99,31.76-131.99,47.64-3.96,1.43-69.92,24.52-69.74,25.14-.62-2.1-35.93-122.69-35.93-122.69,28.48-5.27,56.93-10.66,85.38-16.1,53.49-10.23,106.96-20.62,160.27-31.79,15.4-3.22,14.76-2.21,30.14-5.55,13.84-3.01,23.43-10.63,32.94-21,7.92-8.63,15.47-17.94,25.52-23.96,10.35-6.2,22.35-6.83,33.03-11.64,12.07-5.44,26.62-7.14,39.54-9.54,4.63-.86,10.73-1,12.59,3.33,2.1,4.87-3.52,9.36-8.25,11.76-13.28,6.76-26.35,13.9-39.21,21.42,2.19,2.12,5.66,1.95,8.68,1.53,25.43-3.49,48.08-16.39,71.97-24.77,2.86-1,13.87-5.36,16.87-4.88,3,.48,5.92,2.81,6.04,5.84.15,3.58-3.31,6.12-6.37,7.98-12.89,7.8-33.77,19.03-46.66,26.84,14.7-6.71,37.49-16.63,52.39-22.9,2.56-1.08,5.43-2.16,8.03-1.19,3.91,1.46,4.85,6.96,2.97,10.7-3.24,6.45-13.32,13.12-19.32,16.96-8.93,5.7-26.27,14.16-35.95,18.46,14.96-2.35,35.89-15.08,50.44-19.29,3.32-.96,7.55-1.37,9.6,1.41,1.4,1.9,1.11,4.65-.1,6.68-1.2,2.03-3.14,3.5-5.05,4.89-13.33,9.72-35.41,21.52-49.61,30.1Z"/>
      <g>
        <path class="cls-26" d="m283.17,564.81l29.91,131.74-224.05,52.29c-31.01,7.24-63.09-5.46-79.12-32.32-16.92-28.36-13.73-67.57,21.55-93.79l251.7-57.92Z"/>
        <line class="cls-15" x1="162.29" y1="731.74" x2="313.08" y2="696.55"/>
        <line class="cls-15" x1="283.17" y1="564.81" x2="87.27" y2="609.89"/>
      </g>
      <line class="cls-15" x1="179.92" y1="587.35" x2="219.09" y2="466.61"/>
    </g>
    <g>
      <g>
        <g>
          <line class="cls-5" x1="2014.52" y1="1187.28" x2="1999.06" y2="1251.72"/>
          <line class="cls-5" x1="1972.81" y1="1183.92" x2="1957.35" y2="1248.36"/>
          <path class="cls-3" d="m1944.71,1216.71c-7.47,0-13.94,5.25-15.59,12.65l-20.07,90.4-117.75,517.65-1.29,10.68h98.95l120.19-528.33,18.49-83.28c2.25-10.13-5.35-19.77-15.59-19.77h-67.34Z"/>
          <path class="cls-3" d="m1437.42,1836.71h0c0,17.49,13.98,31.67,31.22,31.67h392.4c17.07,0,30.97-13.9,31.21-31.21h0c.25-17.66-13.8-32.12-31.21-32.12h-392.4c-17.24,0-31.22,14.18-31.22,31.67Z"/>
          <path class="cls-5" d="m1795.03,1921.75h-262.49c-23.02,0-43.78-11.85-52.59-30.03l-11.32-23.34h392.4l-14.82,26.01c-9.54,16.74-29.41,27.36-51.18,27.36Z"/>
          <path class="cls-3" d="m1958.35,1188.97h67.1c11.09,0,20.77-7.62,23.53-18.51l14.32-56.53c3.95-15.59-7.66-30.78-23.53-30.78h-67.1c-11.09,0-20.77,7.62-23.53,18.51l-14.32,56.53c-3.95,15.59,7.66,30.78,23.53,30.78Z"/>
          <line class="cls-5" x1="1673.05" y1="1921.75" x2="1673.05" y2="2282.38"/>
          <line class="cls-5" x1="1830.63" y1="2282.38" x2="1508.26" y2="2282.38"/>
          <ellipse class="cls-5" cx="1827.68" cy="2322.1" rx="39.15" ry="39.72"/>
          <ellipse class="cls-5" cx="1508.26" cy="2322.1" rx="39.15" ry="39.72"/>
          <ellipse class="cls-5" cx="1673.05" cy="2322.1" rx="39.15" ry="39.72"/>
        </g>
        <path class="cls-27" d="m1418.43,2222.28l19.41,69.1c7.21,25.67-11.02,51.43-36.38,51.43h-291.69c-9.66,0-17.48-8.26-17.48-18.45h0c0-6.76,4.11-12.83,10.39-15.34l96.21-38.48,96.94-48.26h122.61Z"/>
        <g>
          <path class="cls-3" d="m1082.54,2343.26h0c0,10.25,8.31,18.56,18.56,18.56h172.04c32.42-5.3,62.74-6.55,89,0h83.04c10.25,0,18.56-8.31,18.56-18.56h0s-145.58-22.68-145.58-22.68l-235.61,22.68Z"/>
          <path class="cls-25" d="m1464.1,2334.66c-.05,4.76-3.94,8.6-8.71,8.6h-97.82c-17.82-13.94-50.53-9.9-88.08,0h-186.95l8.05-27.37c4.07-13.85,15.29-24.43,29.36-27.68l62.13-14.35,95.02-51.12,12.29,8.8,45.69,32.7,100.38-20.91s0,0,0,0c19.74,31.56,28.92,61.96,28.62,91.33Z"/>
        </g>
        <polygon class="cls-18" points="1083.68 1738.07 1300.98 2222.28 1423.6 2222.28 1279.81 1716.95 1083.68 1738.07"/>
        <polygon class="cls-28" points="1089.06 1767.39 1250.77 2188.19 1407.63 2187.41 1279.81 1716.95 1089.06 1767.39"/>
        <path class="cls-28" d="m1804.3,1620.91c17.46,92.02-49.71,177.8-139.24,177.8l-576-31.32h0c-37.91-69.86,4.46-157.61,80.62-166.99l374.76-33.76,259.86,54.27Z"/>
        <path class="cls-28" d="m1848.51,1507.98l14.58,134.13c17.46,92.02-40.4,165.91-129.93,165.91l-593.22-9.32h0c-37.91-69.86,4.46-157.61,80.62-166.99l327-23.9-6.71-88.35,307.66-11.47Z"/>
        <polygon class="cls-18" points="1163.9 1833.13 1352.58 2222.28 1475.19 2222.28 1355.15 1823.21 1163.9 1833.13"/>
        <polygon class="cls-28" points="1142.15 1788.26 1308.67 2188.19 1483.22 2186.82 1338.28 1767.14 1142.15 1788.26"/>
        <path class="cls-15" d="m1549.77,1596.03l-327,24.07c-76.16,9.44-118.52,97.81-80.62,168.16h0l166.52,399.93"/>
        <path class="cls-27" d="m1458.21,2342.8h-55.15c-17.82-13.94-50.53-9.9-88.08,0h-148.46c-9.66,0-17.49-8.26-17.49-18.45,0-3.38,1.03-6.59,2.84-9.27,1.82-2.67,4.41-4.82,7.55-6.08l96.21-38.47,79.26-39.46,17.68-8.8h122.61l5.78,20.59s0,0,0,0l13.62,48.51c7.21,25.67-11.01,51.43-36.38,51.43Z"/>
        <path class="cls-2" d="m1517.53,1331.54l9.12,231.37c92.36,32.69,208.1,42.85,345.62,32.02,0,0,5.98-218.05,5.98-218.06,2.31-84.09,35.51-177.37-13-254.09-28.97-45.82-83.18-52.47-133.19-53.84-.48-.01-141.92-3.88-141.92-3.88l-56.76-1.55-9.2,90.59c-29.6,53.52-13.38,110.38-6.66,177.44Z"/>
        <path class="cls-23" d="m1533.39,1063.51c-24.2-.41-63.01,43.28-98.1,109.17l-171.65,191.02c3.53,52.17,26.55,75.58,67.55,72.45,26.51-2.02,51.14-14.39,68.96-33.98l161.09-177.07-27.86-161.59Z"/>
        <path class="cls-2" d="m1533.39,1063.51c-20.7-6.66-51.97,26.34-100.95,104.13-17.25,27.4-20.56,26.66-60.75,71.18l98.87,107.53,103.5-114.85-40.68-168Z"/>
        <path class="cls-23" d="m1572.6,989.86c7.72,5.48,17.11,8.15,26.46,9.75,21.78.2,46.82-7.61,73.19-18.73,27.9-11.76,50.19-33.95,61.19-61.99,23.51-59.94-17.12-109.92-78.35-111.02-32.62-.59-64.12,8.52-78.63,35.6-1.31,2.43-4.95,11.75-5.63,13.78-3.75,11.16-6.49,22.67-8.43,34.32-4.56,27.32-17.15,78.89,10.2,98.29Z"/>
        <path class="cls-23" d="m1697.19,954.49c4.19,54.15,10.8,86.27,25.93,114.21l-122.49-.85-10.98-71.97,107.54-41.38Z"/>
        <path class="cls-7" d="m1599.3,877.11l-4.45,24.3c-11.7-1.83-18.06.17-4.45,16.49"/>
        <path class="cls-3" d="m1624.23,890.11c0,3.28,1.74,5.94,3.89,5.94s3.89-2.66,3.89-5.94-1.74-5.94-3.89-5.94-3.89,2.66-3.89,5.94Z"/>
        <path class="cls-3" d="m1574.07,879.33c0,3.28,1.74,5.94,3.89,5.94s3.89-2.66,3.89-5.94-1.74-5.94-3.89-5.94-3.89,2.66-3.89,5.94Z"/>
        <path class="cls-4" d="m1587.57,934.08c-.63.52-1.23,1.08-1.81,1.65-1.5,1.49-2.88,3.23-3.32,5.3s.32,4.51,2.21,5.48c1.31.68,2.88.55,4.34.37,5.01-.61,27.31-2.8,27.09-10.08-.16-5-11.63-8.6-15.57-8.29-4.77.38-9.26,2.5-12.94,5.56Z"/>
        <path class="cls-3" d="m1620.79,865.1c-2.28-2.5-3.81-6.64-.52-9.05,1.82-1.34,4.27-1.51,6.51-1.23,10.72,1.37,20.77,11.5,26.54,19.99,1.13,1.66,2.11,3.99.83,5.54-.92,1.12-2.62,1.24-4.06.95-5.15-1.02-9.84-3.94-14.45-6.4-4.94-2.64-11.05-5.62-14.87-9.81Z"/>
        <path class="cls-3" d="m1583.33,844.89c-.81.38-1.61.74-2.39,1.09-4.75,2.15-9.94,4.08-13.89,7.54-1.1.96-2.04,2.38-1.72,3.8.45,1.96,2.89,2.6,4.9,2.72,6.19.37,13.83-.13,20.58-2.28,5.32-4.35,2.1-13.47-7.48-12.87Z"/>
        <path class="cls-26" d="m1682.81,959.66c5.09,12.82,8.34,24.84,18.58,34.14,8.93-22.68,23.66-46.31,35.5-67.64,8.63-15.53,18.23-31.32,19.86-48.98,1.21-13.03-2.23-26.49-9.79-37.21-6.63-9.4-16.83-12.56-21.06-23.8-2.44-6.49-4.32-13.72-9.76-18.06-5.61-4.47-13.64-4.69-19.65-8.61-4.87-3.18-7.88-8.43-11.79-12.71-7.91-8.68-20.02-13.41-31.76-12.41-7.27.62-14.37,3.29-21.65,2.82-10.16-.65-19.07-7.29-29.16-8.62-10.4-1.37-21.39,3.53-27.25,12.17-4.5,6.63-6.43,15.43-13.18,19.78-4.19,2.71-9.48,3.11-14,5.25-8.58,4.06-13.19,14.91-10.14,23.85,3.96,11.59,17.71,16.8,30.01,17.47,12.31.67,24.92-1.64,36.83,1.51,10.94,2.89,20.32,10.16,31.29,12.9,8.99,2.24,17.17.5,26.15-.22,7.78-.62,10.08,0,9.01,8.13-2.17,16.4-9.86,31.47-10.88,48.45-.28,4.61.18,10.09,4.15,12.49,2.96,1.79,6.75,1.12,10.14.38,0,0,3.44,26.11,8.53,38.93Z"/>
        <path class="cls-23" d="m1809.25,1318.29l-41.67,66.4c-23.39,41.86-79.71,104.52-124.58,104.52-40.78-1.44-70.05-55.24-86.82-92.64l45.31-32.31,90.04-115.81,117.71,69.84Z"/>
        <polygon class="cls-23" points="1263.64 1363.71 1246.4 1074.22 1349.75 1067.85 1373.9 1306.79 1263.64 1363.71"/>
        <path class="cls-23" d="m1171.74,917.16c.2-8.48.63-17.07,3.28-25.13.77-2.34,1.89-4.81,4.1-5.92,3.76-1.9,8.23,1.24,10.37,4.85,3.64,6.16,3.79,13.67,3.84,20.81.12,16.96,2.06,33.95,2.19,50.91-.17-24.62.5-49.25,2-73.83.52-8.57,1.35-17.7,6.67-24.47,2.02-2.57,4.99-4.81,8.26-4.54,3.04.25,5.55,2.66,6.79,5.42,1.24,2.77,1.44,5.86,1.61,8.89,1.51,26.24,3.66,51.12,3.58,77.4-.2-27.07.78-54.14,2.91-81.12.41-5.2.93-10.61,3.64-15.08,2.71-4.47,8.28-7.69,13.26-6.03,3.52,1.18,5.96,4.51,7.03,8.04,1.07,3.53.98,7.29.89,10.98-.62,23.82-1.24,47.64-1.87,71.45l.17-3.92c1.06-18.91,2.12-37.81,3.17-56.72.22-3.95.47-8.01,2.19-11.58,1.72-3.57,5.3-6.55,9.28-6.35,3.87.2,7,3.26,8.96,6.58,5.47,9.29,4.44,20.8,3.91,31.54-.51,10.23-.41,20.49.29,30.7.22,3.21.51,6.45,1.59,9.48,1.54,4.31,4.59,7.9,7.58,11.39,6.46,7.53,12.91,15.07,19.37,22.6,1.34-3.99,1.91-8.3,1.98-12.51.12-7.74-1.27-15.43-1.69-23.17-.52-9.5.42-19.07,2.79-28.28.96-3.76,2.46-7.83,5.91-9.65,4.42-2.33,10.15.32,12.97,4.44,2.81,4.12,3.49,9.26,4.28,14.17,2.35,14.63,6.34,28.99,11.89,42.74,2.36,5.86,5.02,11.66,6.21,17.86,1.01,5.24.93,10.63.73,15.96-.56,14.71-2.06,29.39-4.5,43.91l4.1,40.21-104.85-5.3c-19.41-20.57-38.36-41.55-56.85-62.94-4.64-5.36-9.31-10.85-12.18-17.32-5.54-12.46-1.8-25.03-3.92-37.82-2.14-12.88-2.24-25.53-1.92-38.67Z"/>
        <path class="cls-2" d="m1768.22,1116.1c17.83-16.47,39.85-23.58,70.07-8.3,42.7,21.59,52.23,79.25,31.97,120.7l-3.68,6.6-52.15,117.2s-149.79-75.3-149.79-75.3c19.51-32.08,39.01-64.16,58.52-96.24,13.51-22.21,27.18-48.15,45.06-64.66Z"/>
        <line class="cls-12" x1="1664.61" y1="1257.03" x2="1755.45" y2="1112.78"/>
        <line class="cls-12" x1="1880.46" y1="1235.1" x2="1824.73" y2="1352.3"/>
        <path class="cls-23" d="m1589.72,1065.7l2.07,4.61c16.96,37.86,64.15,51.46,98.88,28.49l42.5-28.1c-.36-.59-.73-1.18-1.09-1.76l-141.92-3.88c-.19.28-.24.36-.43.64Z"/>
        <path class="cls-7" d="m1195.51,962.68c49.53,27.9,84.74,59.76,96.71,98.04"/>
        <path class="cls-7" d="m1306.8,973.53c-10.68,22.41-10.68,44.82,0,67.23"/>
        <ellipse class="cls-23" cx="1707.82" cy="930.55" rx="40.72" ry="40.43"/>
        <path class="cls-7" d="m1738.04,930.55c0-16.57-13.53-30.01-30.22-30.01s-30.22,13.43-30.22,30.01"/>
        <line class="cls-7" x1="1700.98" y1="901.32" x2="1691.91" y2="937.2"/>
        <path class="cls-29" d="m1589.92,997.62c18.55,3.09,46.04-5.01,77.18-17.68-26.84,23.8-51.86,40.87-73.16,44.09l-4.03-26.4Z"/>
        <line class="cls-14" x1="1367.92" y1="1247.66" x2="1378.38" y2="1327.77"/>
        <g>
          <path class="cls-3" d="m1128.04,2342.8h0c0,10.25,8.31,18.56,18.56,18.56h172.04c32.42-5.3,62.74-6.55,89,0h83.04c10.25,0,18.56-8.31,18.56-18.56h0l-145.58-22.68-235.61,22.68Z"/>
          <path class="cls-25" d="m1509.59,2334.21c-.05,4.76-3.94,8.6-8.71,8.6h-97.82c-17.82-13.94-50.53-9.9-88.08,0h-186.95l8.05-27.37c4.07-13.85,15.29-24.43,29.36-27.68l62.13-14.35,95.02-51.12,12.29,8.8,45.69,32.7,100.38-20.91s0,0,0,0c19.74,31.56,28.92,61.96,28.62,91.33Z"/>
          <path class="cls-15" d="m1128.04,2342.8l8.05-27.37c4.07-13.85,15.29-24.43,29.36-27.68l62.13-14.35,69.83-37.57"/>
        </g>
        <path class="cls-14" d="m1514.21,1303.26c-15.34-39.45-3.4-93.91,9.98-149.16"/>
        <path class="cls-15" d="m1308.67,2257.3c0-7.58-44.44-50.9-77.07-81.68-15.72-14.83-41.53-8.3-48.3,12.23h0c-5.2,15.77,3.62,32.72,19.51,37.51l105.86,31.94Z"/>
        <path class="cls-15" d="m1307.8,2257.08c-2.72-7.08-59.76-31.54-101.26-48.56-20-8.2-41.74,7.17-40.68,28.76h0c.81,16.58,15.13,29.24,31.68,28l110.27-8.21Z"/>
      </g>
      <path class="cls-23" d="m1607.51,1356.55l-324.67-39.31-14.97,89.1c113.85,30.99,249.85,57.53,375.14,82.88l-35.5-132.67Z"/>
      <g>
        <path class="cls-23" d="m1356.66,1332.53c-23.34-17.61-46.67-35.22-70.01-52.83-16.23-12.25-36.4-11.74-56.45-14.52-14.43-2-28.86-4.01-43.29-6.01-1.97-.27-4.03-.54-5.88.14-4.51,1.66-5.25,8-3.23,12.4,3.96,8.62,14.08,12.31,23.15,15.13,14.22,4.41,28.43,8.82,42.65,13.23-30.39-6.88-59.67-12.9-90.07-19.78-6.79-1.54-14.13-3.03-20.45-.29-2.42,1.05-4.65,2.81-5.56,5.27-1.37,3.67.59,7.96,3.63,10.54,3.04,2.58,6.96,3.82,10.75,4.99,28.35,8.78,56.77,17.59,85.9,23.02-32.83-3.05-64.24-18.52-97.03-22-6.59-.7-14.81.04-17.35,6.08-1.67,3.97.09,8.78,3.18,11.91,3.08,3.12,7.24,4.91,11.3,6.55,29.15,11.74,59.6,19.72,89.96,27.62-25.4-8.75-51.12-16.38-77.01-23.49-8.17-2.24-18.01-4.03-24.06,1.71-1.58,1.5-2.78,3.56-2.72,5.76.08,2.63,1.89,4.91,3.8,6.77,8.24,8,19.47,12,30.34,15.66,20.82,7.01,41.76,13.64,62.8,19.9-20.22-8.32-43.26-15.51-64.32-21.24-4.92-1.34-10.68-2.46-14.65.63-4.58,3.57-3.93,11.14-.21,15.72,3.72,4.58,9.49,6.9,15.01,8.98,26.41,9.97,53.19,18.94,80.25,26.89,10.67,3.14,21.4,6.12,32.27,8.43,29.36,6.25,54.86-1.11,84.77.19l12.5-87.35Z"/>
        <g>
          <line class="cls-15" x1="1141.92" y1="1300.8" x2="1227.81" y2="1323.82"/>
          <line class="cls-15" x1="1127.91" y1="1326.35" x2="1217.88" y2="1353.97"/>
          <line class="cls-15" x1="1132.07" y1="1359.66" x2="1211.04" y2="1380.27"/>
        </g>
      </g>
      <g>
        <path class="cls-20" d="m1080.55,452.34h312.51c80.4,0,145.58,65.18,145.58,145.58v101.68c0,80.4-65.18,145.58-145.58,145.58h-50.04l27.26,115.4-59.06-115.4h-230.68c-80.4,0-145.58-65.18-145.58-145.58v-101.68c0-80.4,65.18-145.58,145.58-145.58Z"/>
        <path class="cls-11" d="m1220.57,592.85c-28.92,1.33-57.03,15.38-75.46,37.71-3.61,4.37-6.96,9.28-7.75,14.9-2.16,15.37,14.76,26.2,29.65,30.57,51.52,15.13,110.2,3.12,151.64-31.02,6.14-5.06,12.35-11.48,12.47-19.44.21-13.56-16.15-20.4-29.54-22.5-38.85-6.11-79.07-3.31-116.7,8.13-15.89,4.83-33.94,14.69-34.4,31.29-.3,10.86,7.46,20.25,15.79,27.22,28.75,24.02,70.26,31.76,105.73,19.7,6.91-2.35,13.9-5.63,18.25-11.49,4.35-5.86,5.15-14.9.04-20.12-4.56-4.66-11.9-4.86-18.4-4.37-30.07,2.3-59.43,13.27-83.64,31.26-11.2,8.32-22.28,21.62-17.61,34.76,4.63,13.04,21.28,16.44,35.1,16.83,31.8.9,64.65-3.56,92.15-19.55,27.5-15.99,48.73-45.11,49.03-76.92.09-9.49-1.7-19.15-6.38-27.41-11.51-20.3-36.93-27.52-60-31.07-41.57-6.4-84.05-6.9-125.77-1.47-24.01,3.12-49.43,9.1-65.81,26.92-22.74,24.72-19.58,66.04.75,92.78,20.33,26.74,53.71,40.69,86.85,46.14,36.82,6.05,75.82,2.72,109.25-13.85,33.43-16.57,60.59-47.25,68.67-83.68,4.07-18.34,2.45-39.7-11.07-52.74-10.68-10.3-26.32-13.19-41.05-15.02-25.7-3.18-51.62-4.54-77.51-4.05-14.09.26-29.22,1.45-40.17,10.33-6.68,5.42-11.11,13.29-13.31,21.61-8.64,32.63,19.92,67.71,53.47,71.43,33.55,3.72,66.45-19.13,80.82-49.67,8.29-17.62,10.96-39.55.41-55.92-12.72-19.72-39.14-24.51-62.56-26.01-34.45-2.21-70.8-.85-100.71,16.38-18.13,10.44-34.08,30.05-29.77,50.52,2.07,9.81,8.59,18.24,16.43,24.48,47.05,37.45,109.9-12.76,145.41-44.71,9.27-8.34,18.13-17.49,23.7-28.65,5.57-11.15,7.51-24.66,2.7-36.16-4.99-11.94-16.66-20.19-29.15-23.55-31.34-8.41-69.94,1.01-98.39,14.16-21.39,9.89-42.95,23.05-53.43,44.16-13.91,28.05-4.3,62.42,12.13,89.07,11.67,18.93,27.46,36.4,48.23,44.34,23.97,9.16,51.43,4.28,74.55-6.85,35.57-17.13,64.24-50.09,71.73-88.85.78-4.04,1.31-8.37-.29-12.17-3.33-7.93-13.68-9.59-22.28-9.69-38.35-.41-76.77,7.62-111.75,23.35-23.53,10.58-48.69,31.33-43.6,56.62,1.63,8.08,6.32,15.28,12.06,21.19,21.19,21.85,56.6,26.3,84.71,14.63,28.11-11.66,48.96-37.19,59.85-65.61,1.9-4.96,3.54-10.41,2.01-15.5-2.11-6.96-9.4-10.89-16.3-13.2-38.47-12.85-84.88,5.37-104.34,40.96-9.43,17.25-12.68,38.64-5.12,56.79,10.73,25.78,41.3,39.27,69.11,36.71,27.81-2.56,52.83-18.22,73.63-36.85"/>
      </g>
    </g>
    <g>
      <path class="cls-20" d="m896.11,0h-248.26c-63.87,0-115.65,51.78-115.65,115.65v80.78c0,63.87,51.78,115.65,115.65,115.65h39.75l-19.39,84.34,44.65-84.34h183.25c63.87,0,115.65-51.78,115.65-115.65v-80.78c0-63.87-51.78-115.65-115.65-115.65Z"/>
      <g>
        <polygon class="cls-1" points="798.92 78.3 883.36 46.17 847.91 119.46 917.26 180.76 824.92 174.97 855.07 244.06 774.23 192.54 657.31 239.61 708.19 168.25 626.7 106.57 722.88 100.03 731.08 26.57 798.92 78.3"/>
        <g>
          <path class="cls-11" d="m774.25,82.65h0c30.3,0,54.87,21.76,54.87,48.59h0c0,7.26-1.8,14.14-5.02,20.32-10.34,19.84-16.26,41.27-16.26,63.12v2.86h-67.17v-2.86c0-21.86-5.92-43.28-16.26-63.13-3.22-6.18-5.02-13.06-5.02-20.32h0c0-26.84,24.57-48.59,54.87-48.59Z"/>
          <path class="cls-11" d="m740.62,217.54v17.77c0,9.17,8.39,16.6,18.73,16.6h29.76c10.34,0,18.73-7.43,18.73-16.6v-17.77h-67.23Z"/>
          <path class="cls-11" d="m764.22,251.91c.18,4.44,4.3,7.98,9.36,7.98h2.77c5.05,0,9.18-3.55,9.36-7.98h-21.49Z"/>
          <line class="cls-11" x1="807.84" y1="227.94" x2="740.62" y2="227.94"/>
          <line class="cls-11" x1="807.84" y1="239.61" x2="741.26" y2="239.61"/>
          <path class="cls-11" d="m785.71,217.54l10.92-83.01,2.92-6.61c2.99-6.76,14.64-3.63,12.68,3.41-.02.06-.04.12-.05.19-.77,2.53-3.43,4.25-6.39,4.25h-60.83c-2.68,0-5.16-1.31-6.43-3.39-1.63-2.66-1.63-4.86-.35-6.7,3.03-4.36,10.52-3.57,12.76,1.15l3.5,7.38,9.78,83.35"/>
        </g>
      </g>
    </g>
    <path class="cls-24" d="m962.69,1986.78c-.28,8.72-.36,17.68-.93,26.61-.49,7.64-1.47,15.26-2.37,22.87-.22,1.88-.91,3.72-1.55,5.52-.17.48-.97,1.05-1.48,1.06-2.23,0-4.49.04-6.67-.34-10.69-1.87-21.37-3.84-32.04-5.85-1.87-.35-3.75-.9-5.49-1.65-.7-.3-1.57-1.43-1.51-2.11.66-6.98,1.51-13.95,2.28-20.93.28-2.54.67-5.08.7-7.63.11-11.51.44-23.02.06-34.52-.41-12.48-2.56-24.78-6.07-36.78-2.43-8.32-5.96-16.17-11.46-23.03-5.86-7.3-13.35-11.48-22.54-13.36-8.73-1.78-17.2-.48-25.69.92-4.39.72-8.64,2.25-12.95,3.46-1.08.3-2,1.99-1.75,3.06.29,1.24.58,2.48.96,3.7,1.52,4.88,3.14,9.73,4.59,14.63,3.01,10.15,4.82,20.58,5.35,31.1.85,16.92-2.3,33.13-11.23,47.8-8.61,14.15-20.94,23.98-36.4,29.84-10.87,4.12-22.11,6.07-33.78,5.89-16.65-.25-32.23-4.29-46.65-12.63-8.1-4.68-15.29-10.51-20.81-18.15-11.42-15.81-14.51-33.07-8.75-51.8,3.94-12.79,11.18-23.62,20.09-33.41,7.56-8.3,16.02-15.65,25.19-22.09,6.8-4.77,13.86-9.17,20.83-13.68,2.41-1.56,4.95-2.93,7.39-4.45,2.44-1.51,2.62-3.22.27-5.33-4.04-3.62-8.03-7.36-12.42-10.53-10.27-7.4-21.86-11.73-34.25-14.21-9.82-1.96-19.71-2.19-29.6-1.51-6.03.42-11.99,1.76-17.98,2.7-2.2.35-4.39.77-6.6,1.1-1.16.17-2.5-.7-3.05-1.86-.41-.87-.87-1.71-1.18-2.61-4.33-12.36-8.64-24.73-12.95-37.1-.72-2.07.15-3.71,2.36-4.37,5.82-1.74,11.71-3.13,17.69-4.23,15.85-2.92,31.85-3.11,47.79-1.78,20.98,1.76,40.68,8.12,58.7,19.15,12.35,7.56,23.22,16.85,32.63,27.95,9.46,11.17,5.57,10.04,19.74,5.77,10.13-3.05,20.44-5.26,30.92-6.39,12.13-1.3,24.26-.79,36.18,2.26,24.63,6.29,42.67,21.01,55.07,42.95,7.15,12.64,11.61,26.27,14.62,40.39,2.41,11.26,4.03,22.64,4.25,34.18.12,6.39.31,12.78.48,19.4Zm-175.13-63.41q-1.18-1.44-2.65-.23c-10.52,5.4-20.33,11.93-29.53,19.32-4.21,3.38-8.14,7.13-12.05,10.86-3.24,3.09-5.76,6.8-8,10.67-1.12,1.94-1.95,3.99-2.24,6.25-.44,3.4.35,6.4,3.02,8.6,1.95,1.61,4.03,3.17,6.29,4.28,10.67,5.24,21.86,6.75,33.41,3.57,9.23-2.55,15.76-8.21,18.29-17.73.65-2.43.86-5.02.98-7.55.65-13.3-2.63-25.84-7.52-38.05Z"/>
    <path class="cls-17" d="m1253.94,280.96c-1.81.25-3.61.49-5.42.74-1.25-.11-2.5-.39-3.74-.32-9.43.57-18.86.64-28.3.23-.93-.04-1.87.19-2.8.3-1.9.02-3.79.04-5.69.07-2.42-.24-4.83-.48-7.25-.72-2.48-1.89-5.28-1.83-8.15-1.37-1.16-.16-2.33-.32-3.49-.48-2.35-2.05-5.13-2.01-7.98-1.6-1.13-.19-2.27-.37-3.4-.56-1.91-1.86-4.08-2.23-6.5-1.12-.44,1.67.16,3.17.89,4.58,3.66,7.1,7.69,13.98,12.21,20.58,6.5,9.5,13.56,18.58,21.24,27.16,6.38,7.14,12.93,14.13,19.36,21.13.11,1.48-.7,2.43-1.61,3.34-10.17,10.16-20.33,20.33-30.5,30.49-.73.05-1.46.1-2.19.16-19.62-18.95-37.13-39.63-51.77-62.68-6.01-9.46-11.26-19.31-15.5-29.69-5.22-12.79-9.07-25.93-9.76-39.82-.14-2.7-.86-4.98-2.99-6.74-.74-.61-1.37-1.34-2.04-2.02-18.22-18.22-27.47-40.43-29.4-65.91-1.54-20.33,1.13-40.21,6.66-59.72,6.13-21.59,14.81-42.16,25.88-61.7.62-1.1,1.4-2.12,2.16-3.14.17-.23.55-.31.96-.53,3.08.69,5.47,2.88,8.18,4.43,2.77,1.59,5.45,3.34,8.16,5.02.36,1.09,1.06,1.66,2.25,1.49,0,0,.03.01.03.02.81,1.4,1.86,2.4,3.63,2.18,5.13,3.17,10.25,6.34,15.38,9.51.37.98,1.03,1.62,2.1,1.78.48,1.32-.02,2.46-.6,3.62-3.43,6.85-7.06,13.62-10.23,20.59-5.83,12.82-10.33,26.12-13.35,39.9-2.13,9.72-3.36,19.51-2.92,29.49.17,3.84.39,7.67,1.46,11.38.5,1.75.14,4.25,2.53,4.64,1.62.27,2.68-1.4,3.72-2.63,13.01-15.47,29.28-26.52,47.49-34.93,2.61-1.2,5.28-2.27,7.93-3.4,1.57.28,2.74-.47,3.78-1.51,0,0,.14-.04.14-.04,1.16.3,2.06,0,2.61-1.12,1.04-.24,2.08-.47,3.13-.71,1.75.5,3.15-.03,4.21-1.49,1.1-.25,2.19-.5,3.29-.74,1.15.48,1.99.12,2.56-.96,1.68-.29,3.35-.57,5.03-.86,1.76.67,3.26.33,4.44-1.19,1.16-.18,2.31-.37,3.47-.55,6.59.25,13.18.23,19.77-.19,1.15.13,2.29.27,3.44.4,1.75,1.39,3.66,2.24,5.96,1.7,25.7,7.92,52.07,35.4,58.66,68.8,1.74,8.8,1.8,17.76-.12,26.56-3.43,15.71-12.3,27.73-25.65,36.5-4.26,2.8-8.78,5.13-13.64,6.74-1.76-.45-3.09.24-4.17,1.58-2.53.66-5.07,1.32-7.6,1.98-2.19-.48-4.3-.59-5.94,1.35Zm-15.06-46.99l5.4-.64c2.35.74,4.43.37,6.15-1.48.52-.16,1.05-.28,1.59-.35,1.83.56,3.11-.22,4.12-1.68.29-.14.57-.28.86-.43,7.18-3.76,7.41-9.47,5.8-15.46-.16-.62-.38-1.22-.57-1.83-3.18-10.11-9.21-18.16-17.67-24.44-2.85-2.12-5.99-3.67-9.48-4.46q-1.07-1.3-2.17-.06c-3.76.88-7.53,1.75-11.29,2.63-1.74-.43-3.24-.13-4.32,1.44-.53.03-1.03.17-1.5.44-1.73-.37-3.17.04-4.19,1.57l-7.14,2.51c-1.19-.31-1.97.18-2.42,1.28-.5.16-.99.34-1.47.55-1.18-.24-1.97.23-2.39,1.35-.49.17-.97.37-1.44.59-1.2-.22-1.96.29-2.35,1.4-6.22,3.31-11.87,7.42-16.96,12.3-3.47,3.32-6.56,6.95-9.03,11.08-.86,1.44-.74,1.92,1.18,3.87,1.05,1.42,2.36,2.15,4.16,1.59.56.11,1.12.17,1.68.2,1.14,1.09,2.38,1.86,4.06,1.37l3.45.71c1.19,1.15,2.52,1.81,4.21,1.23,1.17.25,2.34.5,3.51.76,1.79,1.77,3.89,2.11,6.23,1.35,1.76.19,3.51.39,5.27.58,2.47,1.98,5.24,2.05,8.14,1.29l7.31.73c.78.45,1.56,1.28,2.36,1.3,5.52.13,11.04.14,16.56.04.79-.01,1.57-.85,2.35-1.3Z"/>
    <path class="cls-24" d="m43.45,1444.86c.75-19.29,5.29-35.76,14.18-50.98,5.51-9.43,11.98-18.12,19.47-26.08,10.11-10.75,21.05-20.54,32.87-29.38,10.53-7.87,20.26-16.64,29.32-26.16,5.09-5.36,9.52-11.2,13.39-17.49,2.03-3.3,3.55-6.81,4.66-10.49,1.66-5.49,1.07-10.72-2.11-15.61-2.3-3.54-5.2-6.46-8.56-8.97-5.67-4.24-11.84-7.58-18.33-10.37-1.47-.63-2.94-1.26-4.42-1.87-6.98-2.84-7.74-2.07-5.62-10.31,2.96-11.44,6-22.87,9-34.3.24-.93.47-1.86.75-2.77.31-1,2.1-1.92,3.14-1.61,18.57,5.63,35.75,14,50.44,26.81,11.04,9.63,19.46,21.22,23.13,35.68,1.96,7.75,2.89,15.53,2.01,23.69-1.45,13.38-6.16,25.39-13.1,36.69-5.37,8.75-11.61,16.84-18.71,24.27-10.85,11.35-22.35,21.98-34.97,31.34-9.27,6.88-17.92,14.45-25.9,22.79-5.11,5.34-9.57,11.15-13.44,17.44-2.19,3.56-3.91,7.34-5.34,11.24-3.66,9.99-3.64,20.02-.13,30.06,2.23,6.4,5.56,12.19,9.56,17.64,8.22,11.21,18.3,20.51,29.48,28.64,5.68,4.13,11.71,7.79,17.57,11.68,1.33.88,2.76,1.66,3.88,2.75.57.55.77,1.73.72,2.6-.05.91-.52,1.84-.94,2.69-5.5,11.19-11.01,22.37-16.55,33.55-.57,1.14-1.26,2.22-1.91,3.32-.42.71-1.86,1.27-2.51.98-1.45-.66-2.94-1.25-4.32-2.04-20.42-11.63-39.04-25.59-54.88-43.04-10.17-11.21-18.59-23.6-24.3-37.7-3.38-8.33-5.88-16.89-6.54-25.92-.25-3.5-.78-6.98-.98-8.77Z"/>
    <path class="cls-24" d="m1872.62,869.9c-14.85-11.61-24.02-26.39-30.19-43.18-3.98-10.84-6.48-22.05-7.73-33.56-1.48-13.7-2.03-27.41-1.23-41.17.75-12.8.19-25.56-1.18-38.3-.65-6.06-1.78-12.01-3.38-17.88-1.26-4.65-3-9.11-5.42-13.28-.79-1.37-1.71-2.7-2.74-3.9-3.75-4.35-8.46-6.67-14.27-6.68-3.54,0-7,.36-10.45,1.19-7.52,1.81-14.52,4.91-21.38,8.36-2.28,1.15-4.48,2.46-6.72,3.69-.94.51-2.77.14-3.54-.69-.65-.71-1.38-1.35-1.93-2.12-7.63-10.64-15.23-21.29-22.82-31.96-.36-.51-.53-1.15-.8-1.72-.34-.71-.07-2.19.49-2.66.24-.21.42-.51.68-.67,14.93-9.54,30.8-16.85,48.26-20.48,10.15-2.11,20.3-2.44,30.49-.67,12.24,2.13,23.25,7.19,32.41,15.53,7.84,7.14,13.92,15.76,18.39,25.47,5.13,11.13,8.38,22.78,10.17,34.86,2.59,17.44,3.52,34.99,2.61,52.6-.61,11.84-.39,23.64.96,35.42.84,7.34,2.32,14.54,4.94,21.43,1.47,3.86,3.18,7.69,5.25,11.27,5.87,10.14,14.62,16.69,25.86,19.99,9.94,2.92,20.08,3.65,30.37,2.97,14.13-.93,27.81-4.03,41.25-8.36,3.35-1.08,6.65-2.28,9.98-3.4,1.85-.63,2.96-.17,3.8,1.72,5.68,12.86,11.34,25.73,16.98,38.6.25.57.42,1.25.37,1.85-.05.58-.27,1.4-.69,1.64-1.65.94-3.35,1.84-5.12,2.5-21.11,7.79-42.78,13.13-65.32,14.3-14.77.77-29.36-.35-43.67-4.42-13.11-3.72-25.02-9.61-34.66-18.3Z"/>
    <path class="cls-17" d="m1570.1,437.55c-.56-.22-1.11-.46-1.65-.71-.93-1.6-2.35-1.82-3.98-1.41-.63-.01-1.22-.18-1.78-.48-.89-1.61-2.29-1.86-3.93-1.47-.6-.04-1.18-.18-1.72-.43-.89-1.63-2.33-1.86-3.98-1.55h-.04c-.55-.99-1.32-1.51-2.48-1.15-6.79-2.88-13.59-5.75-20.38-8.63-.43-1.13-1.23-1.56-2.41-1.31-.48-.2-.97-.39-1.46-.56-.41-1.12-1.2-1.58-2.38-1.35-.47-.21-.95-.41-1.44-.59-.41-1.13-1.21-1.58-2.38-1.37-8.13-4.4-16.28-8.77-23.88-14.07-.61-.42-.98-1.99-.66-2.59.15-.28.24-.6.42-.86,8.13-11.83,16.27-23.66,24.43-35.48.94-1.36,2.63-1.58,4.22-.65,5.52,3.19,11.04,6.38,16.56,9.58.39,1.1,1.12,1.62,2.32,1.36,0,0,.07.03.07.03.42.98,1.11,1.36,2.15.99,7.93,4.05,16.02,7.73,24.34,10.92,1.03,1.4,2.35,2.09,4.12,1.63.53.11,1.05.25,1.57.42.37.99,1.11,1.43,2.14,1.45.67.02,1.35.03,2.02.05.52.15,1.05.28,1.59.38,1.08,1.42,2.46,1.98,4.22,1.46.54.13,1.07.28,1.6.44,1.13,1.41,2.52,2.01,4.3,1.38,1.12.15,2.25.29,3.37.44,1.21,1.09,2.53,1.76,4.2,1.16,1.19.23,2.38.45,3.57.68,2.44,1.71,5.1,2.24,7.99,1.46,2.45.27,4.9.55,7.35.82.77.45,1.53,1.26,2.32,1.29,3.62.13,7.26.12,10.88-.04.79-.03,1.54-.85,2.31-1.3,1.81-.24,3.62-.48,5.43-.73,2.33.77,4.36.19,6.15-1.39,1.09-.16,2.19-.32,3.28-.48,1.84.65,3.2-.08,4.31-1.52,1.16-.54,2.3-1.12,3.47-1.62,10.54-4.49,19.01-11.59,26.01-20.56,6.14-7.86,10.79-16.56,14.58-25.75,5.5-13.33,9.08-27.21,11.6-41.39,2.01-11.32,3.6-22.7,4.23-34.19.05-.95.3-1.89.46-2.83,2.12-.12,4.24-.22,6.36-.36,1.51-.1,3.01-.25,4.52-.37,1.22-.13,2.44-.26,3.66-.38,3.79.35,7.59.7,11.38,1.05,2.39,2.42,5.28,1.57,8.09,1.25,4.38.09,8.76.18,13.14.27.41.45,1.06.84,1.18,1.35.21.91.19,1.9.11,2.84-.49,5.4-.92,10.81-1.56,16.19-2.29,19.34-5.72,38.46-11.51,57.09-4.27,13.73-9.7,26.98-17.03,39.4-8.01,13.58-17.7,25.74-30.07,35.63-10.04,8.03-20.99,14.43-33.29,18.38-1.69-.43-3.11-.12-4.06,1.47-.53.23-1.07.43-1.62.6-2.31-.53-4.25.21-6,1.68-.59.04-1.19.06-1.78.07-2.21-.52-4.33-.62-5.99,1.33-1.83.21-3.66.42-5.49.63-1.28-.05-2.56-.11-3.84-.16-7.16.06-14.33.11-21.49.2-1.24.02-2.47.22-3.71.33-1.89.01-3.77.03-5.66.04-2.41-.26-4.81-.53-7.22-.79-1.85-1.65-4-1.8-6.28-1.26-1.16-.2-2.32-.4-3.48-.61-1.71-1.82-3.8-2.08-6.1-1.49-1.2-.3-2.4-.61-3.6-.91-.97-1.5-2.36-1.6-3.91-1.17l-.95.02s-.95-.02-.95-.02c-1.7-1.44-3.58-2.26-5.86-1.77Z"/>
    <path class="cls-17" d="m784.52,2327.16c-13.71-6.05-26.94-13.01-39.63-20.98-1.34-.84-2.63-1.77-3.82-2.81-.39-.34-.55-1.16-.49-1.72.06-.59.47-1.17.82-1.68,7.93-11.56,15.87-23.1,23.82-34.65.18-.26.39-.5.58-.74.71-.9,2.41-1.2,3.45-.62,6.92,3.92,13.85,7.84,20.77,11.77.41,1.11,1.16,1.63,2.36,1.37.5.17.99.36,1.47.57.43,1.1,1.19,1.61,2.39,1.32,3.09,1.39,6.19,2.79,9.28,4.18,1,1.34,2.22,2.18,4,1.75,0,0,0,0,0,0,1.05,1.26,2.26,2.15,4.04,1.7.51.14,1.02.29,1.52.46,1.05,1.36,2.34,2.11,4.12,1.64.53.12,1.05.26,1.56.42,1.03,1.48,2.39,2.05,4.16,1.55.54.1,1.07.23,1.59.39,1.06,1.48,2.45,2,4.21,1.46.54.1,1.08.21,1.61.35,1.16,1.3,2.5,2.02,4.28,1.37,1.13.17,2.26.33,3.39.5,1.21,1.06,2.53,1.73,4.19,1.15,1.19.23,2.38.47,3.57.7,2.44,1.69,5.09,2.25,7.99,1.46,2.45.28,4.9.55,7.35.83.77.45,1.53,1.26,2.31,1.29,3.62.13,7.26.13,10.88-.02.79-.03,1.54-.85,2.31-1.31,1.81-.24,3.63-.48,5.44-.72,2.33.74,4.37.24,6.16-1.38,1.12-.23,2.24-.46,3.36-.69,1.74.54,3-.28,4.13-1.46,14.77-5.3,25.65-15.3,34.12-28.2,5.82-8.87,10.14-18.49,13.55-28.5,4.85-14.26,7.99-28.93,10.05-43.85,1.05-7.61,1.94-15.22,2.41-22.89.08-1.24.58-2.46.89-3.69,4.04.2,8.08,1.03,12.14.21,1.24-.1,2.48-.2,3.72-.3,2.52.28,5.04.55,7.56.83.95.91,2.05,1.56,3.38,1.55,2.86-.03,5.71-.14,8.57-.21,3.13-.06,6.27.82,9.39-.13.31.08.62.16.93.23,1.35.29,2.46.98,2.34,2.46-.53,6.67-.99,13.35-1.81,19.98-2.07,16.76-4.96,33.39-9.62,49.65-3.78,13.18-8.55,26-14.93,38.17-4.6,8.77-9.92,17.07-16.16,24.76-11.22,13.83-24.8,24.66-40.98,32.18-1.44.67-2.88,1.34-4.33,2.02-1.74-.33-3.11.25-4.13,1.68-.54.05-1.06.18-1.55.41-1.73-.42-3.09.19-4.19,1.52-.55.03-1.08.14-1.59.35-1.73-.43-3.24-.16-4.37,1.35-1.13.13-2.27.26-3.4.39-2.22-.53-4.34-.61-6.01,1.33-1.81.32-3.63.63-5.44.95-1.89,0-3.79,0-5.68,0-7.8,0-15.6.01-23.4.02-1.89.01-3.78.03-5.67.04-1.82-.19-3.65-.39-5.47-.58-2.46-1.65-5.15-2.05-8.03-1.48-1.16-.2-2.32-.41-3.47-.61-1.7-1.85-3.8-2.05-6.09-1.49-1.11-.16-2.22-.32-3.33-.48-1.14-1.5-2.64-1.76-4.37-1.32-3.03-.83-6.07-1.65-9.1-2.48-1.06-1.55-2.54-1.88-4.28-1.5-.49-.23-1-.34-1.53-.34-1.03-1.51-2.47-1.91-4.19-1.57-3.72-1.48-7.44-2.95-11.17-4.43-.45-1.13-1.28-1.49-2.44-1.19-.52-.13-1.02-.3-1.52-.49-.89-1.56-2.24-2.08-3.96-1.75Z"/>
  </g>
</svg>