<?xml version="1.0" encoding="UTF-8"?>
<svg id="Camada_2" data-name="Camada 2" xmlns="http://www.w3.org/2000/svg" viewBox="0 0 247.7 269.1">
  <defs>
    <style>
      .cls-1 {
        fill: #fff;
      }

      .cls-2 {
        fill: #edcfa4;
      }
    </style>
  </defs>
  <g id="Camada_1-2" data-name="Camada 1">
    <g>
      <g>
        <path class="cls-1" d="m146.71,38.95c5.12,0,9.26-4.14,9.26-9.26V9.26c0-5.12-4.14-9.26-9.26-9.26s-9.26,4.14-9.26,9.26v20.44c0,5.12,4.14,9.26,9.26,9.26Z"/>
        <path class="cls-1" d="m93.61,44.05c1.6,3.29,4.89,5.2,8.33,5.2,1.36,0,2.74-.3,4.05-.94,4.59-2.24,6.5-7.78,4.26-12.37l-8.96-18.37c-2.23-4.58-7.74-6.51-12.37-4.26-4.59,2.24-6.5,7.78-4.26,12.37l8.96,18.37Z"/>
        <path class="cls-1" d="m187.35,48.37c1.31.64,2.69.94,4.05.94,3.43,0,6.73-1.91,8.33-5.2l8.96-18.38c2.24-4.6.33-10.14-4.26-12.37-4.63-2.26-10.14-.33-12.37,4.26l-8.96,18.38c-2.24,4.6-.33,10.14,4.26,12.37Z"/>
        <path class="cls-1" d="m246.24,166.43l-19.89-30.36c-1-1.77-1.55-3.82-1.77-5.82-3.44-39.83-36.73-71.13-77.45-71.13-14.46,0-27.98,3.93-39.56,10.8,5.76,9.2,9.25,19.94,9.75,31.25.39,9.25-1.11,18.23-4.49,26.65l6.09,20.16c1.61,5.48.61,11.25-2.77,15.84-3.38,4.54-8.75,7.26-14.4,7.26-1.72,0-3.44-.28-5.15-.77l-20.39-6.04c-.22.11-.44.17-.67.28,5.32,23.6,18.73,34.24,25.1,39.67,2.22,1.94,3.44,4.76,3.44,7.76v44.32c0,3.55,2.77,6.48,6.26,6.87l66.87,5.93c4.04.28,7.48-2.88,7.48-6.98v-31.47c0-1.99,1.66-3.66,3.82-3.66h23.38c7.26,0,13.18-5.93,13.18-13.18v-31.36c0-1.39,1.11-2.49,2.49-2.49h11.47c6.87,0,11.02-7.7,7.2-13.52Zm-45.93-20c-5.6,0-10.08-4.49-10.08-10.08s4.49-10.08,10.08-10.08,10.08,4.54,10.08,10.08-4.54,10.08-10.08,10.08Z"/>
      </g>
      <path class="cls-2" d="m107.24,151.49l-7.36-24.5c3.92-7.95,5.66-16.52,5.29-25.3-1.05-25.24-20.68-46.73-45.74-49.88C26.43,47.65-1.6,74.22.07,106.72c1.24,24.14,19.38,44.93,43.19,49.06,11.08,1.92,22.34.44,32.09-4.48l24.75,7.35c4.38,1.3,8.46-2.79,7.14-7.16Zm-29.68-54.22l-25.83,25.88c-1.42,1.41-3.38,2.23-5.39,2.23s-3.98-.82-5.39-2.23l-14.17-14.17c-2.94-2.94-2.94-7.79,0-10.79,3-2.94,7.85-2.94,10.79,0l8.77,8.77,20.43-20.49c3-2.94,7.79-2.94,10.79,0,3,3,3,7.85,0,10.79Z"/>
    </g>
  </g>
</svg>