<?xml version="1.0" encoding="UTF-8"?>
<svg id="Camada_2" data-name="Camada 2" xmlns="http://www.w3.org/2000/svg" viewBox="0 0 306.23 252.07">
  <defs>
    <style>
      .cls-1 {
        fill: #fff;
      }

      .cls-2 {
        fill: #edcfa4;
      }
    </style>
  </defs>
  <g id="Camada_1-2" data-name="Camada 1">
    <g>
      <path class="cls-2" d="m153.19,0c-5.94,0-10.74,4.81-10.74,10.74v26.63c0,5.94,4.81,10.74,10.74,10.74s10.74-4.81,10.74-10.74V10.74c0-5.94-4.81-10.74-10.74-10.74Z"/>
      <path class="cls-2" d="m104.12,48.08c1.59,4.36,5.71,7.07,10.1,7.07,1.22,0,2.46-.21,3.68-.65,5.57-2.03,8.45-8.19,6.42-13.77l-9.11-25.03c-2.03-5.57-8.2-8.43-13.77-6.42-5.57,2.03-8.45,8.19-6.42,13.77l9.11,25.03Z"/>
      <path class="cls-2" d="m188.34,54.33c1.21.44,2.45.65,3.68.65,4.39,0,8.51-2.71,10.1-7.07l9.11-25.03c2.03-5.58-.84-11.74-6.42-13.77-5.55-2.01-11.74.84-13.77,6.42l-9.11,25.03c-2.03,5.58.84,11.74,6.42,13.77Z"/>
      <path class="cls-1" d="m58.09,160.99c19.37,0,35.08-15.7,35.08-35.08s-15.71-35.08-35.08-35.08-35.08,15.7-35.08,35.08,15.7,35.08,35.08,35.08Z"/>
      <path class="cls-1" d="m126.34,75.68c-8.4-.43-15.34,6.24-15.34,14.54v8.94c.53,31.27-6.23,53.65-19.56,64.72-1.73,1.44-3.49,2.79-5.23,4.06-8.05,5.4-17.71,8.58-28.11,8.58-12.13,0-23.27-4.3-31.99-11.44-14.55,6.64-26.1,18.88-26.1,39.39v40.27c0,4.05,3.28,7.33,7.33,7.33h101.54c4.05,0,7.32-3.28,7.32-7.33v-40.27c0-1.29-.05-2.53-.13-3.75-.75-10.39,1.52-20.71,7.3-29.38,11.64-17.44,17.28-41.72,16.75-72.43v-7.88c0-7.88-5.91-14.95-13.78-15.36Z"/>
      <path class="cls-1" d="m248.14,160.99c19.38,0,35.08-15.7,35.08-35.08s-15.7-35.08-35.08-35.08-35.08,15.7-35.08,35.08,15.71,35.08,35.08,35.08Z"/>
      <path class="cls-1" d="m280.13,165.09c-8.73,7.14-19.86,11.44-31.99,11.44-10.4,0-20.07-3.18-28.11-8.58-1.74-1.27-3.49-2.62-5.23-4.06-13.33-11.07-20.1-33.45-19.56-64.72v-8.94c0-8.3-6.94-14.97-15.34-14.54-7.87.42-13.78,7.48-13.78,15.36v7.88c-.53,30.71,5.11,54.98,16.75,72.43,5.79,8.67,8.06,18.99,7.3,29.38-.09,1.22-.13,2.47-.13,3.75v40.27c0,4.05,3.28,7.33,7.32,7.33h101.54c4.04,0,7.32-3.28,7.32-7.33v-40.27c0-20.51-11.55-32.75-26.1-39.39Z"/>
    </g>
  </g>
</svg>